<svg xmlns="http://www.w3.org/2000/svg" viewBox="0 0 24 24" width="100%" height="100%">
  <rect width="24" height="24" fill="#3178c6" rx="3"/>
  <path d="M11.66 14.54a1.85 1.85 0 0 1-.55.67c-.24.16-.54.24-.92.24c-.37 0-.66-.08-.87-.24a.8.8 0 0 1-.32-.67h-.93a1.44 1.44 0 0 0 .54 1.15c.34.25.82.38 1.44.38c.6 0 1.07-.13 1.4-.4c.32-.27.48-.68.48-1.22c0-.44-.1-.78-.29-1c-.19-.24-.5-.47-.94-.68c-.3-.15-.55-.3-.72-.44a.86.86 0 0 1-.26-.64c0-.23.08-.41.25-.54a1 1 0 0 1 .63-.2c.3 0 .54.08.7.24a.78.78 0 0 1 .25.59h.93a1.36 1.36 0 0 0-.46-1c-.3-.26-.73-.39-1.29-.39c-.58 0-1 .13-1.29.39c-.28.25-.43.6-.43 1.05c0 .4.09.73.28.95c.19.22.48.43.87.63c.36.18.64.35.84.51c.2.16.3.4.3.73zm2.59 1.19h.97v-6.3h-2.12v.9h1.15z" fill="#ffffff"/>
</svg>
